<?xml version="1.0" encoding="utf-8"?>
<svg version="1.1" xmlns:xlink="http://www.w3.org/1999/xlink" width="25px" height="20px" xmlns="http://www.w3.org/2000/svg">
  <g transform="matrix(1 0 0 1 -989 -204 )">
    <path d="M 23.0817522321429 18.046875  C 23.1701078869048 17.9569128787879  23.2142857142857 17.8503787878788  23 17.7272727272727  L 23 6.81818181818182  C 22.9166666666667 7.15909090909091  22.5957961309524 7.47159090909091  22.2516741071429 7.75568181818182  C 19.7591145833333 9.70643939393939  17.7780877976191 11.3068181818182  16.30859375 12.5568181818182  C 15.8342633928571 12.9640151515151  15.4482886904762 13.28125  15.1506696428571 13.5085227272727  C 14.8530505952381 13.7357954545455  14.4507998511905 13.9654356060606  13.9439174107143 14.1974431818182  C 13.4370349702381 14.4294507575758  12.9603794642857 14.5454545454545  12.5139508928571 14.5454545454545  L 12.5 14.5454545454545  L 12.4860491071429 14.5454545454545  C 12.0396205357143 14.5454545454545  11.5629650297619 14.4294507575758  11.0560825892857 14.1974431818182  C 10.5492001488095 13.9654356060606  10.1469494047619 13.7357954545455  9.84933035714286 13.5085227272727  C 9.55171130952381 13.28125  9.16573660714286 12.9640151515151  8.69140625 12.5568181818182  C 7.22191220238095 11.3068181818182  5.24088541666667 9.70643939393939  2.74832589285714 7.75568181818182  C 2.40420386904762 7.47159090909091  2.08333333333333 7.15909090909091  2 6.81818181818182  L 2 17.7272727272727  C 1.78571428571429 17.8503787878788  1.82989211309524 17.9569128787879  1.91824776785714 18.046875  C 2.00660342261905 18.1368371212121  2.11123511904762 18.1818181818182  2.23214285714286 18  L 22.7678571428571 18  C 22.8887648809524 18.1818181818182  22.993396577381 18.1368371212121  23.0817522321429 18.046875  Z M 22.5655691964286 4.66619318181818  C 22.998046875 3.97964015151515  23.2142857142857 3.35700757575758  23.2142857142857 2.79829545454545  L 23.2142857142857 2.64204545454545  L 23.2142857142857 2.45028409090909  C 23.2142857142857 2.45028409090909  23.2119605654762 2.38873106060606  23.2073102678571 2.265625  C 23.2026599702381 2.14251893939394  23.188709077381 2.08333333333333  23.1654575892857 2.08806818181818  C 23.1422061011905 2.09280303030303  23.1166294642857 2.05018939393939  23.0887276785714 1.96022727272727  C 23.0608258928571 1.87026515151515  23.0189732142857 1.83475378787879  22.9631696428571 1.85369318181818  C 22.9073660714286 1.87263257575758  22.8422619047619 1.86079545454545  22.7678571428571 2  L 2.23214285714286 2  C 2.11123511904762 1.81818181818182  2.00660342261905 1.86316287878788  1.91824776785714 1.953125  C 1.82989211309524 2.04308712121212  1.78571428571429 2.14962121212121  1.78571428571429 2.27272727272727  C 1.78571428571429 3.86363636363636  2.46930803571429 5.20833333333333  3.83649553571429 6.30681818181818  C 5.63151041666667 7.74621212121212  7.49627976190476 9.24715909090909  9.43080357142857 10.8096590909091  C 9.48660714285714 10.8570075757576  9.64936755952381 10.9966856060606  9.91908482142857 11.2286931818182  C 10.1888020833333 11.4607007575758  10.4027157738095 11.6382575757576  10.5608258928571 11.7613636363636  C 10.7189360119048 11.8844696969697  10.9258742559524 12.0336174242424  11.181640625 12.2088068181818  C 11.4374069940476 12.3839962121212  11.6722470238095 12.5142045454545  11.8861607142857 12.5994318181818  C 12.1000744047619 12.6846590909091  12.300037202381 12.7272727272727  12.4860491071429 12.7272727272727  L 12.5 12.7272727272727  L 12.5139508928571 12.7272727272727  C 12.699962797619 12.7272727272727  12.8999255952381 12.6846590909091  13.1138392857143 12.5994318181818  C 13.3277529761905 12.5142045454545  13.5625930059524 12.3839962121212  13.818359375 12.2088068181818  C 14.0741257440476 12.0336174242424  14.2810639880952 11.8844696969697  14.4391741071429 11.7613636363636  C 14.5972842261905 11.6382575757576  14.8111979166667 11.4607007575758  15.0809151785714 11.2286931818182  C 15.3506324404762 10.9966856060606  15.5133928571429 10.8570075757576  15.5691964285714 10.8096590909091  C 17.5037202380952 9.24715909090909  19.3684895833333 7.74621212121212  21.1635044642857 6.30681818181818  C 21.6657366071429 5.89962121212121  22.1330915178571 5.35274621212121  22.5655691964286 4.66619318181818  Z M 24.3443080357143 0.667613636363635  C 24.7814360119048 1.11268939393939  25 1.64772727272727  25 2.27272727272727  L 25 17.7272727272727  C 25 18.3522727272727  24.7814360119048 18.8873106060606  24.3443080357143 19.3323863636364  C 23.9071800595238 19.7774621212121  23.3816964285714 20  22.7678571428571 20  L 2.23214285714286 20  C 1.61830357142857 20  1.09281994047619 19.7774621212121  0.655691964285714 19.3323863636364  C 0.218563988095238 18.8873106060606  0 18.3522727272727  0 17.7272727272727  L 0 2.27272727272727  C 0 1.64772727272727  0.218563988095238 1.11268939393939  0.655691964285714 0.667613636363635  C 1.09281994047619 0.222537878787876  1.61830357142857 0  2.23214285714286 0  L 22.7678571428571 0  C 23.3816964285714 0  23.9071800595238 0.222537878787876  24.3443080357143 0.667613636363635  Z " fill-rule="nonzero" fill="#f1f9ff" stroke="none" transform="matrix(1 0 0 1 989 204 )" />
  </g>
</svg>