<?xml version="1.0" encoding="utf-8"?>
<svg version="1.1" xmlns:xlink="http://www.w3.org/1999/xlink" width="20px" height="20px" viewBox="1020 660  20 20" xmlns="http://www.w3.org/2000/svg">
  <path d="M 1020.5 664  A 3.5 3.5 0 0 1 1024 660.5 L 1036 660.5  A 3.5 3.5 0 0 1 1039.5 664 L 1039.5 676  A 3.5 3.5 0 0 1 1036 679.5 L 1024 679.5  A 3.5 3.5 0 0 1 1020.5 676 L 1020.5 664  Z " fill-rule="nonzero" fill="#ffffff" stroke="none" />
  <path d="M 1020.5 664  A 3.5 3.5 0 0 1 1024 660.5 L 1036 660.5  A 3.5 3.5 0 0 1 1039.5 664 L 1039.5 676  A 3.5 3.5 0 0 1 1036 679.5 L 1024 679.5  A 3.5 3.5 0 0 1 1020.5 676 L 1020.5 664  Z " stroke-width="1" stroke="#2699fb" fill="none" />
</svg>