<?xml version="1.0" encoding="utf-8"?>
<svg version="1.1" xmlns:xlink="http://www.w3.org/1999/xlink" width="20px" height="20px" viewBox="359 535  20 20" xmlns="http://www.w3.org/2000/svg">
  <path d="M 359.5 539  A 3.5 3.5 0 0 1 363 535.5 L 375 535.5  A 3.5 3.5 0 0 1 378.5 539 L 378.5 551  A 3.5 3.5 0 0 1 375 554.5 L 363 554.5  A 3.5 3.5 0 0 1 359.5 551 L 359.5 539  Z " fill-rule="nonzero" fill="#ffffff" stroke="none" />
  <path d="M 359.5 539  A 3.5 3.5 0 0 1 363 535.5 L 375 535.5  A 3.5 3.5 0 0 1 378.5 539 L 378.5 551  A 3.5 3.5 0 0 1 375 554.5 L 363 554.5  A 3.5 3.5 0 0 1 359.5 551 L 359.5 539  Z " stroke-width="1" stroke="#2699fb" fill="none" />
</svg>