<?xml version="1.0" encoding="utf-8"?>
<svg version="1.1" xmlns:xlink="http://www.w3.org/1999/xlink" width="20px" height="20px" viewBox="36 1623  20 20" xmlns="http://www.w3.org/2000/svg">
  <path d="M 36.5 1627  A 3.5 3.5 0 0 1 40 1623.5 L 52 1623.5  A 3.5 3.5 0 0 1 55.5 1627 L 55.5 1639  A 3.5 3.5 0 0 1 52 1642.5 L 40 1642.5  A 3.5 3.5 0 0 1 36.5 1639 L 36.5 1627  Z " fill-rule="nonzero" fill="#ffffff" stroke="none" />
  <path d="M 36.5 1627  A 3.5 3.5 0 0 1 40 1623.5 L 52 1623.5  A 3.5 3.5 0 0 1 55.5 1627 L 55.5 1639  A 3.5 3.5 0 0 1 52 1642.5 L 40 1642.5  A 3.5 3.5 0 0 1 36.5 1639 L 36.5 1627  Z " stroke-width="1" stroke="#2699fb" fill="none" />
</svg>