<?xml version="1.0" encoding="utf-8"?>
<svg version="1.1" xmlns:xlink="http://www.w3.org/1999/xlink" width="20px" height="20px" viewBox="36 767  20 20" xmlns="http://www.w3.org/2000/svg">
  <path d="M 36.5 771  A 3.5 3.5 0 0 1 40 767.5 L 52 767.5  A 3.5 3.5 0 0 1 55.5 771 L 55.5 783  A 3.5 3.5 0 0 1 52 786.5 L 40 786.5  A 3.5 3.5 0 0 1 36.5 783 L 36.5 771  Z " fill-rule="nonzero" fill="#ffffff" stroke="none" />
  <path d="M 36.5 771  A 3.5 3.5 0 0 1 40 767.5 L 52 767.5  A 3.5 3.5 0 0 1 55.5 771 L 55.5 783  A 3.5 3.5 0 0 1 52 786.5 L 40 786.5  A 3.5 3.5 0 0 1 36.5 783 L 36.5 771  Z " stroke-width="1" stroke="#2699fb" fill="none" />
  <path d="M 40.2857142857143 777  L 44.5714285714286 781.285714285714  " stroke-width="4.28571428571429" stroke="#2699fb" fill="none" />
  <path d="M 44.5714285714286 781.285714285714  L 51.7142857142857 771.285714285714  " stroke-width="4.28571428571429" stroke="#2699fb" fill="none" />
</svg>