<?xml version="1.0" encoding="utf-8"?>
<svg version="1.1" xmlns:xlink="http://www.w3.org/1999/xlink" width="20px" height="20px" viewBox="690 285  20 20" xmlns="http://www.w3.org/2000/svg">
  <path d="M 690.5 289  A 3.5 3.5 0 0 1 694 285.5 L 706 285.5  A 3.5 3.5 0 0 1 709.5 289 L 709.5 301  A 3.5 3.5 0 0 1 706 304.5 L 694 304.5  A 3.5 3.5 0 0 1 690.5 301 L 690.5 289  Z " fill-rule="nonzero" fill="#f0f0f0" stroke="none" />
  <path d="M 690.5 289  A 3.5 3.5 0 0 1 694 285.5 L 706 285.5  A 3.5 3.5 0 0 1 709.5 289 L 709.5 301  A 3.5 3.5 0 0 1 706 304.5 L 694 304.5  A 3.5 3.5 0 0 1 690.5 301 L 690.5 289  Z " stroke-width="1" stroke="#2699fb" fill="none" />
</svg>