<?xml version="1.0" encoding="utf-8"?>
<svg version="1.1" xmlns:xlink="http://www.w3.org/1999/xlink" width="20px" height="20px" viewBox="359 285  20 20" xmlns="http://www.w3.org/2000/svg">
  <path d="M 359.5 289  A 3.5 3.5 0 0 1 363 285.5 L 375 285.5  A 3.5 3.5 0 0 1 378.5 289 L 378.5 301  A 3.5 3.5 0 0 1 375 304.5 L 363 304.5  A 3.5 3.5 0 0 1 359.5 301 L 359.5 289  Z " fill-rule="nonzero" fill="#ffffff" stroke="none" />
  <path d="M 359.5 289  A 3.5 3.5 0 0 1 363 285.5 L 375 285.5  A 3.5 3.5 0 0 1 378.5 289 L 378.5 301  A 3.5 3.5 0 0 1 375 304.5 L 363 304.5  A 3.5 3.5 0 0 1 359.5 301 L 359.5 289  Z " stroke-width="1" stroke="#2699fb" fill="none" />
</svg>