<?xml version="1.0" encoding="utf-8"?>
<svg version="1.1" xmlns:xlink="http://www.w3.org/1999/xlink" width="20px" height="20px" viewBox="1020 285  20 20" xmlns="http://www.w3.org/2000/svg">
  <path d="M 1020.5 289  A 3.5 3.5 0 0 1 1024 285.5 L 1036 285.5  A 3.5 3.5 0 0 1 1039.5 289 L 1039.5 301  A 3.5 3.5 0 0 1 1036 304.5 L 1024 304.5  A 3.5 3.5 0 0 1 1020.5 301 L 1020.5 289  Z " fill-rule="nonzero" fill="#ffffff" stroke="none" />
  <path d="M 1020.5 289  A 3.5 3.5 0 0 1 1024 285.5 L 1036 285.5  A 3.5 3.5 0 0 1 1039.5 289 L 1039.5 301  A 3.5 3.5 0 0 1 1036 304.5 L 1024 304.5  A 3.5 3.5 0 0 1 1020.5 301 L 1020.5 289  Z " stroke-width="1" stroke="#2699fb" fill="none" />
  <path d="M 1024.28571428571 295  L 1028.57142857143 299.285714285714  " stroke-width="4.28571428571429" stroke="#2699fb" fill="none" />
  <path d="M 1028.57142857143 299.285714285714  L 1035.71428571429 289.285714285714  " stroke-width="4.28571428571429" stroke="#2699fb" fill="none" />
</svg>