<?xml version="1.0" encoding="utf-8"?>
<svg version="1.1" xmlns:xlink="http://www.w3.org/1999/xlink" width="18px" height="18px" viewBox="799 159  18 18" xmlns="http://www.w3.org/2000/svg">
  <path d="M 799.5 163  A 3.5 3.5 0 0 1 803 159.5 L 813 159.5  A 3.5 3.5 0 0 1 816.5 163 L 816.5 173  A 3.5 3.5 0 0 1 813 176.5 L 803 176.5  A 3.5 3.5 0 0 1 799.5 173 L 799.5 163  Z " fill-rule="nonzero" fill="#f0f0f0" stroke="none" />
  <path d="M 799.5 163  A 3.5 3.5 0 0 1 803 159.5 L 813 159.5  A 3.5 3.5 0 0 1 816.5 163 L 816.5 173  A 3.5 3.5 0 0 1 813 176.5 L 803 176.5  A 3.5 3.5 0 0 1 799.5 173 L 799.5 163  Z " stroke-width="1" stroke="#2699fb" fill="none" />
  <path d="M 802.857142857143 168  L 806.714285714286 171.857142857143  " stroke-width="3.85714285714286" stroke="#2699fb" fill="none" />
  <path d="M 806.714285714286 171.857142857143  L 813.142857142857 162.857142857143  " stroke-width="3.85714285714286" stroke="#2699fb" fill="none" />
</svg>