<?xml version="1.0" encoding="utf-8"?>
<svg version="1.1" xmlns:xlink="http://www.w3.org/1999/xlink" width="20px" height="20px" viewBox="359 410  20 20" xmlns="http://www.w3.org/2000/svg">
  <path d="M 359.5 414  A 3.5 3.5 0 0 1 363 410.5 L 375 410.5  A 3.5 3.5 0 0 1 378.5 414 L 378.5 426  A 3.5 3.5 0 0 1 375 429.5 L 363 429.5  A 3.5 3.5 0 0 1 359.5 426 L 359.5 414  Z " fill-rule="nonzero" fill="#f0f0f0" stroke="none" />
  <path d="M 359.5 414  A 3.5 3.5 0 0 1 363 410.5 L 375 410.5  A 3.5 3.5 0 0 1 378.5 414 L 378.5 426  A 3.5 3.5 0 0 1 375 429.5 L 363 429.5  A 3.5 3.5 0 0 1 359.5 426 L 359.5 414  Z " stroke-width="1" stroke="#2699fb" fill="none" />
  <path d="M 363.285714285714 420  L 367.571428571429 424.285714285714  " stroke-width="4.28571428571429" stroke="#2699fb" fill="none" />
  <path d="M 367.571428571429 424.285714285714  L 374.714285714286 414.285714285714  " stroke-width="4.28571428571429" stroke="#2699fb" fill="none" />
</svg>