<?xml version="1.0" encoding="utf-8"?>
<svg version="1.1" xmlns:xlink="http://www.w3.org/1999/xlink" width="18px" height="18px" viewBox="36 805  18 18" xmlns="http://www.w3.org/2000/svg">
  <path d="M 36.5 809  A 3.5 3.5 0 0 1 40 805.5 L 50 805.5  A 3.5 3.5 0 0 1 53.5 809 L 53.5 819  A 3.5 3.5 0 0 1 50 822.5 L 40 822.5  A 3.5 3.5 0 0 1 36.5 819 L 36.5 809  Z " fill-rule="nonzero" fill="#f0f0f0" stroke="none" />
  <path d="M 36.5 809  A 3.5 3.5 0 0 1 40 805.5 L 50 805.5  A 3.5 3.5 0 0 1 53.5 809 L 53.5 819  A 3.5 3.5 0 0 1 50 822.5 L 40 822.5  A 3.5 3.5 0 0 1 36.5 819 L 36.5 809  Z " stroke-width="1" stroke="#2699fb" fill="none" />
</svg>