<?xml version="1.0" encoding="utf-8"?>
<svg version="1.1" xmlns:xlink="http://www.w3.org/1999/xlink" width="20px" height="20px" viewBox="690 410  20 20" xmlns="http://www.w3.org/2000/svg">
  <path d="M 690.5 414  A 3.5 3.5 0 0 1 694 410.5 L 706 410.5  A 3.5 3.5 0 0 1 709.5 414 L 709.5 426  A 3.5 3.5 0 0 1 706 429.5 L 694 429.5  A 3.5 3.5 0 0 1 690.5 426 L 690.5 414  Z " fill-rule="nonzero" fill="#ffffff" stroke="none" />
  <path d="M 690.5 414  A 3.5 3.5 0 0 1 694 410.5 L 706 410.5  A 3.5 3.5 0 0 1 709.5 414 L 709.5 426  A 3.5 3.5 0 0 1 706 429.5 L 694 429.5  A 3.5 3.5 0 0 1 690.5 426 L 690.5 414  Z " stroke-width="1" stroke="#2699fb" fill="none" />
  <path d="M 694.285714285714 420  L 698.571428571429 424.285714285714  " stroke-width="4.28571428571429" stroke="#2699fb" fill="none" />
  <path d="M 698.571428571429 424.285714285714  L 705.714285714286 414.285714285714  " stroke-width="4.28571428571429" stroke="#2699fb" fill="none" />
</svg>