<?xml version="1.0" encoding="utf-8"?>
<svg version="1.1" xmlns:xlink="http://www.w3.org/1999/xlink" width="20px" height="20px" viewBox="36 1695  20 20" xmlns="http://www.w3.org/2000/svg">
  <path d="M 36.5 1699  A 3.5 3.5 0 0 1 40 1695.5 L 52 1695.5  A 3.5 3.5 0 0 1 55.5 1699 L 55.5 1711  A 3.5 3.5 0 0 1 52 1714.5 L 40 1714.5  A 3.5 3.5 0 0 1 36.5 1711 L 36.5 1699  Z " fill-rule="nonzero" fill="#ffffff" stroke="none" />
  <path d="M 36.5 1699  A 3.5 3.5 0 0 1 40 1695.5 L 52 1695.5  A 3.5 3.5 0 0 1 55.5 1699 L 55.5 1711  A 3.5 3.5 0 0 1 52 1714.5 L 40 1714.5  A 3.5 3.5 0 0 1 36.5 1711 L 36.5 1699  Z " stroke-width="1" stroke="#2699fb" fill="none" />
</svg>