<?xml version="1.0" encoding="utf-8"?>
<svg version="1.1" xmlns:xlink="http://www.w3.org/1999/xlink" width="20px" height="20px" viewBox="690 535  20 20" xmlns="http://www.w3.org/2000/svg">
  <path d="M 690.5 539  A 3.5 3.5 0 0 1 694 535.5 L 706 535.5  A 3.5 3.5 0 0 1 709.5 539 L 709.5 551  A 3.5 3.5 0 0 1 706 554.5 L 694 554.5  A 3.5 3.5 0 0 1 690.5 551 L 690.5 539  Z " fill-rule="nonzero" fill="#f0f0f0" stroke="none" />
  <path d="M 690.5 539  A 3.5 3.5 0 0 1 694 535.5 L 706 535.5  A 3.5 3.5 0 0 1 709.5 539 L 709.5 551  A 3.5 3.5 0 0 1 706 554.5 L 694 554.5  A 3.5 3.5 0 0 1 690.5 551 L 690.5 539  Z " stroke-width="1" stroke="#2699fb" fill="none" />
  <path d="M 694.285714285714 545  L 698.571428571429 549.285714285714  " stroke-width="4.28571428571429" stroke="#2699fb" fill="none" />
  <path d="M 698.571428571429 549.285714285714  L 705.714285714286 539.285714285714  " stroke-width="4.28571428571429" stroke="#2699fb" fill="none" />
</svg>