<?xml version="1.0" encoding="utf-8"?>
<svg version="1.1" xmlns:xlink="http://www.w3.org/1999/xlink" width="20px" height="20px" viewBox="36 1125  20 20" xmlns="http://www.w3.org/2000/svg">
  <path d="M 36.5 1129  A 3.5 3.5 0 0 1 40 1125.5 L 52 1125.5  A 3.5 3.5 0 0 1 55.5 1129 L 55.5 1141  A 3.5 3.5 0 0 1 52 1144.5 L 40 1144.5  A 3.5 3.5 0 0 1 36.5 1141 L 36.5 1129  Z " fill-rule="nonzero" fill="#ffffff" stroke="none" />
  <path d="M 36.5 1129  A 3.5 3.5 0 0 1 40 1125.5 L 52 1125.5  A 3.5 3.5 0 0 1 55.5 1129 L 55.5 1141  A 3.5 3.5 0 0 1 52 1144.5 L 40 1144.5  A 3.5 3.5 0 0 1 36.5 1141 L 36.5 1129  Z " stroke-width="1" stroke="#2699fb" fill="none" />
</svg>