<?xml version="1.0" encoding="utf-8"?>
<svg version="1.1" xmlns:xlink="http://www.w3.org/1999/xlink" width="18px" height="18px" viewBox="36 590  18 18" xmlns="http://www.w3.org/2000/svg">
  <path d="M 36.5 594  A 3.5 3.5 0 0 1 40 590.5 L 50 590.5  A 3.5 3.5 0 0 1 53.5 594 L 53.5 604  A 3.5 3.5 0 0 1 50 607.5 L 40 607.5  A 3.5 3.5 0 0 1 36.5 604 L 36.5 594  Z " fill-rule="nonzero" fill="#f0f0f0" stroke="none" />
  <path d="M 36.5 594  A 3.5 3.5 0 0 1 40 590.5 L 50 590.5  A 3.5 3.5 0 0 1 53.5 594 L 53.5 604  A 3.5 3.5 0 0 1 50 607.5 L 40 607.5  A 3.5 3.5 0 0 1 36.5 604 L 36.5 594  Z " stroke-width="1" stroke="#2699fb" fill="none" />
  <path d="M 39.8571428571429 599  L 43.7142857142857 602.857142857143  " stroke-width="3.85714285714286" stroke="#2699fb" fill="none" />
  <path d="M 43.7142857142857 602.857142857143  L 50.1428571428571 593.857142857143  " stroke-width="3.85714285714286" stroke="#2699fb" fill="none" />
</svg>