<?xml version="1.0" encoding="utf-8"?>
<svg version="1.1" xmlns:xlink="http://www.w3.org/1999/xlink" width="20px" height="20px" viewBox="1020 535  20 20" xmlns="http://www.w3.org/2000/svg">
  <path d="M 1020.5 539  A 3.5 3.5 0 0 1 1024 535.5 L 1036 535.5  A 3.5 3.5 0 0 1 1039.5 539 L 1039.5 551  A 3.5 3.5 0 0 1 1036 554.5 L 1024 554.5  A 3.5 3.5 0 0 1 1020.5 551 L 1020.5 539  Z " fill-rule="nonzero" fill="#ffffff" stroke="none" />
  <path d="M 1020.5 539  A 3.5 3.5 0 0 1 1024 535.5 L 1036 535.5  A 3.5 3.5 0 0 1 1039.5 539 L 1039.5 551  A 3.5 3.5 0 0 1 1036 554.5 L 1024 554.5  A 3.5 3.5 0 0 1 1020.5 551 L 1020.5 539  Z " stroke-width="1" stroke="#2699fb" fill="none" />
  <path d="M 1024.28571428571 545  L 1028.57142857143 549.285714285714  " stroke-width="4.28571428571429" stroke="#2699fb" fill="none" />
  <path d="M 1028.57142857143 549.285714285714  L 1035.71428571429 539.285714285714  " stroke-width="4.28571428571429" stroke="#2699fb" fill="none" />
</svg>