<?xml version="1.0" encoding="utf-8"?>
<svg version="1.1" xmlns:xlink="http://www.w3.org/1999/xlink" width="72px" height="82px" xmlns="http://www.w3.org/2000/svg">
  <g transform="matrix(1 0 0 1 -385 -254 )">
    <path d="M 54.1875 3.11160714285715  L 68.8125 17.3883928571429  C 69.6875 18.2425595238095  70.4375 19.4017857142857  71.0625 20.8660714285714  C 71.6875 22.3303571428571  72 23.672619047619  72 24.8928571428571  L 72 77.6071428571429  C 72 78.8273809523809  71.5625 79.8645833333333  70.6875 80.71875  C 69.8125 81.5729166666667  68.75 82  67.5 82  L 4.5 82  C 3.25 82  2.1875 81.5729166666667  1.3125 80.71875  C 0.4375 79.8645833333333  0 78.8273809523809  0 77.6071428571429  L 0 4.39285714285715  C 0 3.17261904761905  0.4375 2.13541666666666  1.3125 1.28125  C 2.1875 0.427083333333336  3.25 0  4.5 0  L 46.5 0  C 47.75 0  49.125 0.305059523809527  50.625 0.915178571428573  C 52.125 1.52529761904762  53.3125 2.25744047619047  54.1875 3.11160714285715  Z M 49.921875 7.22991071428572  C 49.546875 6.86383928571428  48.90625 6.5282738095238  48 6.22321428571428  L 48 24  L 65.625 24  C 65.3125 22.5438988095238  64.96875 21.9185267857143  64.59375 21.5524553571429  L 49.921875 7.22991071428572  Z M 6 76  L 66 76  L 66 30  L 46.5 30  C 45.25 29.2857142857143  44.1875 28.8586309523809  43.3125 28.0044642857143  C 42.4375 27.1502976190476  42 26.1130952380952  42 24.8928571428571  L 42 6  L 6 6  L 6 76  Z M 35.0625 38.1171875  C 36.78125 43.1201636904762  39.0625 46.7503720238095  41.90625 49.0078125  C 42.9375 49.8009672619048  44.25 50.6551339285714  45.84375 51.5703125  C 47.6875 51.3567708333333  49.515625 51.25  51.328125 51.25  C 55.921875 51.25  58.6875 51.9973958333333  59.625 53.4921875  C 60.125 54.1633184523809  60.15625 54.9564732142857  59.71875 55.8716517857143  C 59.71875 55.9021577380952  59.703125 55.9326636904762  59.671875 55.9631696428571  L 59.578125 56.0546875  L 59.578125 56.1004464285714  C 59.390625 57.2596726190476  58.28125 57.8392857142857  56.25 57.8392857142857  C 54.75 57.8392857142857  52.953125 57.5342261904762  50.859375 56.9241071428571  C 48.765625 56.3139880952381  46.734375 55.5055803571429  44.765625 54.4988839285714  C 37.859375 55.2310267857143  31.734375 56.4970238095238  26.390625 58.296875  C 21.609375 66.2894345238095  17.828125 70.2857142857143  15.046875 70.2857142857143  C 14.578125 70.2857142857143  14.140625 70.1789434523809  13.734375 69.9654017857143  L 12.609375 69.4162946428571  C 12.578125 69.3857886904762  12.484375 69.3095238095238  12.328125 69.1875  C 12.015625 68.8824404761905  11.921875 68.3333333333333  12.046875 67.5401785714286  C 12.328125 66.3199404761905  13.203125 64.9242931547619  14.671875 63.3532366071429  C 16.140625 61.7821800595238  18.203125 60.3102678571429  20.859375 58.9375  C 21.296875 58.6629464285714  21.65625 58.7544642857143  21.9375 59.2120535714286  C 22 59.2730654761905  22.03125 59.3340773809524  22.03125 59.3950892857143  C 23.65625 56.8020833333333  25.328125 53.7972470238095  27.046875 50.3805803571429  C 29.171875 46.2317708333333  30.796875 42.2354910714286  31.921875 38.3917410714286  C 31.171875 35.8902529761905  30.6953125 33.4574032738095  30.4921875 31.0931919642857  C 30.2890625 28.7289806547619  30.390625 26.7842261904762  30.796875 25.2589285714286  C 31.140625 24.0386904761905  31.796875 23.4285714285714  32.765625 23.4285714285714  L 33.75 23.4285714285714  L 33.796875 23.4285714285714  C 34.515625 23.4285714285714  35.0625 23.6573660714286  35.4375 24.1149553571429  C 36 24.7555803571429  36.140625 25.7927827380952  35.859375 27.2265625  C 35.796875 27.4095982142857  35.734375 27.5316220238095  35.671875 27.5926339285714  C 35.703125 27.6841517857143  35.71875 27.8061755952381  35.71875 27.9587053571429  L 35.71875 29.3314732142857  C 35.65625 33.0837053571429  35.4375 36.0122767857143  35.0625 38.1171875  Z M 17.2265625 64.4285714285714  C 16.0859375 65.7708333333333  15.3125 66.8995535714286  14.90625 67.8147321428571  C 16.53125 67.0825892857143  18.671875 64.6726190476191  21.328125 60.5848214285714  C 19.734375 61.8050595238095  18.3671875 63.0863095238095  17.2265625 64.4285714285714  Z M 33.5625 25.625  L 33.5625 25.7165178571429  C 33.09375 26.9977678571429  33.0625 29.0111607142857  33.46875 31.7566964285714  C 33.5 31.5431547619048  33.609375 30.8720238095238  33.796875 29.7433035714286  C 33.796875 29.6517857142857  33.90625 28.9959077380952  34.125 27.7756696428571  C 34.15625 27.6536458333333  34.21875 27.5316220238095  34.3125 27.4095982142857  C 34.28125 27.3790922619048  34.265625 27.3485863095238  34.265625 27.3180803571429  C 34.234375 27.2570684523809  34.21875 27.2113095238095  34.21875 27.1808035714286  C 34.1875 26.5096726190476  33.984375 25.9605654761905  33.609375 25.5334821428571  C 33.609375 25.5639880952381  33.59375 25.594494047619  33.5625 25.625  Z M 29.859375 52.1651785714286  C 28.921875 53.8735119047619  28.21875 55.1395089285714  27.75 55.9631696428571  C 31.96875 54.3158482142857  36.40625 53.0803571428571  41.0625 52.2566964285714  C 41 52.2261904761905  40.796875 52.0812872023809  40.453125 51.8219866071429  C 40.109375 51.5626860119048  39.859375 51.3567708333333  39.703125 51.2042410714286  C 37.328125 49.1603422619048  35.34375 46.4758184523809  33.75 43.1506696428571  C 32.90625 45.774181547619  31.609375 48.7790178571429  29.859375 52.1651785714286  Z M 58.125 55.3683035714286  C 58.125 55.3377976190476  58.09375 55.2920386904762  58.03125 55.2310267857143  C 57.28125 54.4988839285714  55.09375 54.1328125  51.46875 54.1328125  C 53.84375 54.9869791666667  55.78125 55.4140625  57.28125 55.4140625  C 57.71875 55.4140625  58 55.3988095238095  58.125 55.3683035714286  Z " fill-rule="nonzero" fill="#2699fb" stroke="none" transform="matrix(1 0 0 1 385 254 )" />
  </g>
</svg>