<?xml version="1.0" encoding="utf-8"?>
<svg version="1.1" xmlns:xlink="http://www.w3.org/1999/xlink" width="20px" height="20px" viewBox="36 1410  20 20" xmlns="http://www.w3.org/2000/svg">
  <path d="M 36.5 1414  A 3.5 3.5 0 0 1 40 1410.5 L 52 1410.5  A 3.5 3.5 0 0 1 55.5 1414 L 55.5 1426  A 3.5 3.5 0 0 1 52 1429.5 L 40 1429.5  A 3.5 3.5 0 0 1 36.5 1426 L 36.5 1414  Z " fill-rule="nonzero" fill="#ffffff" stroke="none" />
  <path d="M 36.5 1414  A 3.5 3.5 0 0 1 40 1410.5 L 52 1410.5  A 3.5 3.5 0 0 1 55.5 1414 L 55.5 1426  A 3.5 3.5 0 0 1 52 1429.5 L 40 1429.5  A 3.5 3.5 0 0 1 36.5 1426 L 36.5 1414  Z " stroke-width="1" stroke="#2699fb" fill="none" />
  <path d="M 40.2857142857143 1420  L 44.5714285714286 1424.28571428571  " stroke-width="4.28571428571429" stroke="#2699fb" fill="none" />
  <path d="M 44.5714285714286 1424.28571428571  L 51.7142857142857 1414.28571428571  " stroke-width="4.28571428571429" stroke="#2699fb" fill="none" />
</svg>