<?xml version="1.0" encoding="utf-8"?>
<svg version="1.1" xmlns:xlink="http://www.w3.org/1999/xlink" width="20px" height="20px" viewBox="359 660  20 20" xmlns="http://www.w3.org/2000/svg">
  <path d="M 359.5 664  A 3.5 3.5 0 0 1 363 660.5 L 375 660.5  A 3.5 3.5 0 0 1 378.5 664 L 378.5 676  A 3.5 3.5 0 0 1 375 679.5 L 363 679.5  A 3.5 3.5 0 0 1 359.5 676 L 359.5 664  Z " fill-rule="nonzero" fill="#f0f0f0" stroke="none" />
  <path d="M 359.5 664  A 3.5 3.5 0 0 1 363 660.5 L 375 660.5  A 3.5 3.5 0 0 1 378.5 664 L 378.5 676  A 3.5 3.5 0 0 1 375 679.5 L 363 679.5  A 3.5 3.5 0 0 1 359.5 676 L 359.5 664  Z " stroke-width="1" stroke="#2699fb" fill="none" />
</svg>