<?xml version="1.0" encoding="utf-8"?>
<svg version="1.1" xmlns:xlink="http://www.w3.org/1999/xlink" width="16px" height="16px" viewBox="24 10.5  16 16" xmlns="http://www.w3.org/2000/svg">
  <path d="M 24.5 15.5  A 4.5 4.5 0 0 1 29 11 L 35 11  A 4.5 4.5 0 0 1 39.5 15.5 L 39.5 21.5  A 4.5 4.5 0 0 1 35 26 L 29 26  A 4.5 4.5 0 0 1 24.5 21.5 L 24.5 15.5  Z " fill-rule="nonzero" fill="#f0f0f0" stroke="none" />
  <path d="M 24.5 15.5  A 4.5 4.5 0 0 1 29 11 L 35 11  A 4.5 4.5 0 0 1 39.5 15.5 L 39.5 21.5  A 4.5 4.5 0 0 1 35 26 L 29 26  A 4.5 4.5 0 0 1 24.5 21.5 L 24.5 15.5  Z " stroke-width="1" stroke="#169bd5" fill="none" />
</svg>