<?xml version="1.0" encoding="utf-8"?>
<svg version="1.1" xmlns:xlink="http://www.w3.org/1999/xlink" width="25px" height="16px" xmlns="http://www.w3.org/2000/svg">
  <g transform="matrix(1 0 0 1 -272 -1190 )">
    <path d="M 23.4988305 14.3378553947368  L 23.4992055 14.3386353947368  C 23.4985965 14.1424022368421  23.4942555 13.9472246052632  23.485923 13.7529832894737  L 23.485923 2.67883302631579  L 20.57745825 5.74037565789474  C 18.1970415 2.67329486842105  14.57581275 0.714312236842103  10.51972725 0.714312236842103  C 6.298674 0.714312236842103  2.54869125 2.83514960526316  0.178179 6.1196025  L 4.945512 11.1906264473684  C 5.412711 10.2811006578947  6.0764175 9.49990539473684  6.87667725 8.90988671052632  C 7.70897325 8.22620407894737  8.88825599999999 7.66720223684211  10.519572 7.66720223684211  C 10.71664725 7.66720223684211  10.8687585 7.69143907894737  10.98052125 7.73711013157895  C 13.001724 7.90503592105263  14.7537165 9.07919565789474  15.78530325 10.7834056578947  L 12.41075175 14.3355659210526  C 16.68504 14.3179053947368  21.513654 14.3075475  23.4988305 14.3378553947368  Z " fill-rule="nonzero" fill="#2699fb" stroke="none" transform="matrix(1 0 0 1 272 1190 )" />
  </g>
</svg>