<?xml version="1.0" encoding="utf-8"?>
<svg version="1.1" xmlns:xlink="http://www.w3.org/1999/xlink" width="29px" height="18px" xmlns="http://www.w3.org/2000/svg">
  <g transform="matrix(1 0 0 1 -1060 -958 )">
    <path d="M 27.41530225 16.2495694473684  L 27.41573975 16.2504534473684  C 27.41502925 16.0280558684211  27.40996475 15.8068545526316  27 15.5867143947368  L 27 3.03601076315789  L 24.007034625 6.50575907894737  C 21.22988175 3.02973418421052  17.005114875 0.80955386842105  12.273015125 0.80955386842105  C 7.348453 0.80955386842105  2.973473125 3.21316955263158  0.2078755 6.9355495  L 5.769764 12.6827099736842  C 6.3148295 11.6519140789474  7.08915375 10.7665594473684  8.022790125 10.0978716052632  C 8.993802125 9.32303128947368  10.369632 8.68949586842105  12.272834 8.68949586842105  C 12.502755125 8.68949586842105  12.68021825 8.71696428947368  12.810608125 8.76872481578948  C 15.168678 8.95904071052632  17.21266925 10.2897550789474  18.416187125 12.2211930789474  L 14.479210375 16.2469747105263  C 19.46588 16.2269594473684  25.099263 16.2152205  27.41530225 16.2495694473684  Z " fill-rule="nonzero" fill="#2699fb" stroke="none" transform="matrix(1 0 0 1 1060 958 )" />
  </g>
</svg>