<?xml version="1.0" encoding="utf-8"?>
<svg version="1.1" xmlns:xlink="http://www.w3.org/1999/xlink" width="17px" height="30px" xmlns="http://www.w3.org/2000/svg">
  <g transform="matrix(1 0 0 1 -1056 -1258 )">
    <path d="M 15.9326346666667 0.796099651515152  L 15.9335137777778 0.795667287878787  C 15.7125688888889 0.796381742424242  15.4928124444444 0.801467287878788  15.2741128888889 1  L 2.80543911111111 1  L 6.25251022222223 4.21913046969697  C 2.79920355555556 7.00830477272727  0.593534844444447 11.2513598030303  0.593534844444447 16.0039457121212  C 0.593534844444447 20.9498262878788  2.98147822222222 25.343745469697  6.67949155555555 28.1213145  L 12.389088 22.5353424090909  C 11.3650293333333 21.9879173181818  10.4854613333333 21.2102401363636  9.82114577777778 20.2725620454545  C 9.05140444444444 19.297346530303  8.42197333333333 17.9155624393939  8.42197333333333 16.0041197121212  C 8.42197333333333 15.7732032575758  8.44926222222222 15.5949736515151  8.50068444444445 15.4640193181818  C 8.68975555555556 13.0957413484848  10.0117742222222 11.0428990151515  11.9305866666667 9.83417198484848  L 15.9300568888889 13.7881928030303  C 15.9101724444444 8.77993674242424  15.8984746666667 3.12216592424242  15.9326346666667 0.796099651515152  Z " fill-rule="nonzero" fill="#7fc4fd" stroke="none" transform="matrix(1 0 0 1 1056 1258 )" />
  </g>
</svg>