<?xml version="1.0" encoding="utf-8"?>
<svg version="1.1" xmlns:xlink="http://www.w3.org/1999/xlink" width="25px" height="15px" xmlns="http://www.w3.org/2000/svg">
  <g transform="matrix(1 0 0 1 -269 -1204 )">
    <path d="M 0.501630525000003 0.164855833333331  L 0.501259275000002 0.164085833333335  C 0.501883875000001 0.357412611111111  0.506179274999997 0.549698722222222  0.514536525 0.74106161111111  L 0.514536525 11.6511503888889  L 3.42300225 8.63496394444445  C 5.803419 11.6566065  9.424647 13.5865671666667  13.48073325 13.5865671666667  C 17.70178575 13.5865671666667  21.4517685 11.4971488333333  23.8222815 8.26135527777777  L 19.05494925 3.26545683333333  C 18.587748 4.1615105  17.924043 4.93113094444444  17.12378175 5.51240783333333  C 16.29148725 6.18596416666666  15.1122045 6.73668372222222  13.48088775 6.73668372222222  C 13.28381175 6.73668372222222  13.13170275 6.71280594444444  13.01994 6.6678115  C 10.99873725 6.50237427777778  9.2467425 5.34560794444445  8.215158 3.6666455  L 11.58970875 0.16711138888889  C 7.31542125 0.184510277777775  2.4868065 0.19471472222222  0.501630525000003 0.164855833333331  Z " fill-rule="nonzero" fill="#bce0fd" stroke="none" transform="matrix(1 0 0 1 269 1204 )" />
  </g>
</svg>