<?xml version="1.0" encoding="utf-8"?>
<svg version="1.1" xmlns:xlink="http://www.w3.org/1999/xlink" width="29px" height="17px" xmlns="http://www.w3.org/2000/svg">
  <g transform="matrix(1 0 0 1 -1056 -1274 )">
    <path d="M 0.585235612500004 0.188406666666664  L 0.584802487500003 0.187526666666669  C 0.585531187500001 0.408471555555555  0.590542487499997 0.628227111111111  1 0.846927555555554  L 1 13.3156004444444  L 3.993502625 9.86853022222222  C 6.7706555 13.321836  10.9954215 15.5275053333333  15.727522125 15.5275053333333  C 20.652083375 15.5275053333333  25.02706325 13.1395986666667  27.79266175 9.44154888888889  L 22.230774125 3.73195066666666  C 21.685706 4.756012  20.9113835 5.63557822222222  19.977745375 6.29989466666667  C 19.006735125 7.06967333333333  17.63090525 7.69906711111111  15.727702375 7.69906711111111  C 15.497780375 7.69906711111111  15.320319875 7.67177822222222  15.18993 7.620356  C 12.831860125 7.43128488888889  10.78786625 6.10926622222223  9.584351 4.190452  L 13.521326875 0.190984444444445  C 8.534658125 0.210868888888885  2.90127425 0.222531111111108  0.585235612500004 0.188406666666664  Z " fill-rule="nonzero" fill="#bce0fd" stroke="none" transform="matrix(1 0 0 1 1056 1274 )" />
  </g>
</svg>