<?xml version="1.0" encoding="utf-8"?>
<svg version="1.1" xmlns:xlink="http://www.w3.org/1999/xlink" width="15px" height="26px" xmlns="http://www.w3.org/2000/svg">
  <g transform="matrix(1 0 0 1 -269 -1190 )">
    <path d="M 13.9410553333333 0.686292803030303  L 13.9418245555556 0.685920075757575  C 13.7484977777778 0.686535984848485  13.5562108888889 0.690920075757576  13.3648487777778 1  L 2.45475922222223 1  L 5.47094644444445 3.63718143939394  C 2.44930311111111 6.04164204545454  0.519342988888891 9.69944810606061  0.519342988888891 13.7965049242424  C 0.519342988888891 18.0601950757576  2.60879344444444 21.8480564393939  5.84455511111111 24.2425125  L 10.840452 19.4270193181818  C 9.94440066666667 18.9551011363636  9.17477866666666 18.2846897727273  8.59350255555556 17.4763465909091  C 7.91997888888888 16.6356435606061  7.36922666666667 15.4444503787879  7.36922666666667 13.7966549242424  C 7.36922666666667 13.5975890151515  7.39310444444445 13.4439428030303  7.43809888888889 13.3310511363636  C 7.60353611111111 11.2894321969697  8.76030244444444 9.51974053030303  10.4392633333333 8.47773446969697  L 13.9387997777778 11.8863731060606  C 13.9214008888889 7.56891098484849  13.9111653333333 2.69152234848485  13.9410553333333 0.686292803030303  Z " fill-rule="nonzero" fill="#7fc4fd" stroke="none" transform="matrix(1 0 0 1 269 1190 )" />
  </g>
</svg>