<?xml version="1.0" encoding="utf-8"?>
<svg version="1.1" xmlns:xlink="http://www.w3.org/1999/xlink" width="14px" height="14px" viewBox="59 827.5  14 14" xmlns="http://www.w3.org/2000/svg">
  <path d="M 59.5 829.5  A 1.5 1.5 0 0 1 61 828 L 71 828  A 1.5 1.5 0 0 1 72.5 829.5 L 72.5 839.5  A 1.5 1.5 0 0 1 71 841 L 61 841  A 1.5 1.5 0 0 1 59.5 839.5 L 59.5 829.5  Z " fill-rule="nonzero" fill="#ffffff" stroke="none" />
  <path d="M 59.5 829.5  A 1.5 1.5 0 0 1 61 828 L 71 828  A 1.5 1.5 0 0 1 72.5 829.5 L 72.5 839.5  A 1.5 1.5 0 0 1 71 841 L 61 841  A 1.5 1.5 0 0 1 59.5 839.5 L 59.5 829.5  Z " stroke-width="1" stroke="#2699fb" fill="none" />
  <path d="M 62.5 835  L 65.5 838  " stroke-width="3" stroke="#2699fb" fill="none" />
  <path d="M 65.5 838  L 70.5 831  " stroke-width="3" stroke="#2699fb" fill="none" />
</svg>