<?xml version="1.0" encoding="utf-8"?>
<svg version="1.1" xmlns:xlink="http://www.w3.org/1999/xlink" width="14px" height="14px" viewBox="732 901.5  14 14" xmlns="http://www.w3.org/2000/svg">
  <path d="M 732.5 903.5  A 1.5 1.5 0 0 1 734 902 L 744 902  A 1.5 1.5 0 0 1 745.5 903.5 L 745.5 913.5  A 1.5 1.5 0 0 1 744 915 L 734 915  A 1.5 1.5 0 0 1 732.5 913.5 L 732.5 903.5  Z " fill-rule="nonzero" fill="#ffffff" stroke="none" />
  <path d="M 732.5 903.5  A 1.5 1.5 0 0 1 734 902 L 744 902  A 1.5 1.5 0 0 1 745.5 903.5 L 745.5 913.5  A 1.5 1.5 0 0 1 744 915 L 734 915  A 1.5 1.5 0 0 1 732.5 913.5 L 732.5 903.5  Z " stroke-width="1" stroke="#2699fb" fill="none" />
  <path d="M 735.5 909  L 738.5 912  " stroke-width="3" stroke="#2699fb" fill="none" />
  <path d="M 738.5 912  L 743.5 905  " stroke-width="3" stroke="#2699fb" fill="none" />
</svg>