<?xml version="1.0" encoding="utf-8"?>
<svg version="1.1" xmlns:xlink="http://www.w3.org/1999/xlink" width="14px" height="14px" viewBox="59 1137.5  14 14" xmlns="http://www.w3.org/2000/svg">
  <path d="M 59.5 1139.5  A 1.5 1.5 0 0 1 61 1138 L 71 1138  A 1.5 1.5 0 0 1 72.5 1139.5 L 72.5 1149.5  A 1.5 1.5 0 0 1 71 1151 L 61 1151  A 1.5 1.5 0 0 1 59.5 1149.5 L 59.5 1139.5  Z " fill-rule="nonzero" fill="#ffffff" stroke="none" />
  <path d="M 59.5 1139.5  A 1.5 1.5 0 0 1 61 1138 L 71 1138  A 1.5 1.5 0 0 1 72.5 1139.5 L 72.5 1149.5  A 1.5 1.5 0 0 1 71 1151 L 61 1151  A 1.5 1.5 0 0 1 59.5 1149.5 L 59.5 1139.5  Z " stroke-width="1" stroke="#2699fb" fill="none" />
</svg>