<?xml version="1.0" encoding="utf-8"?>
<svg version="1.1" xmlns:xlink="http://www.w3.org/1999/xlink" width="14px" height="14px" viewBox="732 1201.5  14 14" xmlns="http://www.w3.org/2000/svg">
  <path d="M 732.5 1203.5  A 1.5 1.5 0 0 1 734 1202 L 744 1202  A 1.5 1.5 0 0 1 745.5 1203.5 L 745.5 1213.5  A 1.5 1.5 0 0 1 744 1215 L 734 1215  A 1.5 1.5 0 0 1 732.5 1213.5 L 732.5 1203.5  Z " fill-rule="nonzero" fill="#f0f0f0" stroke="none" />
  <path d="M 732.5 1203.5  A 1.5 1.5 0 0 1 734 1202 L 744 1202  A 1.5 1.5 0 0 1 745.5 1203.5 L 745.5 1213.5  A 1.5 1.5 0 0 1 744 1215 L 734 1215  A 1.5 1.5 0 0 1 732.5 1213.5 L 732.5 1203.5  Z " stroke-width="1" stroke="#2699fb" fill="none" />
</svg>