<?xml version="1.0" encoding="utf-8"?>
<svg version="1.1" xmlns:xlink="http://www.w3.org/1999/xlink" width="31px" height="25px" xmlns="http://www.w3.org/2000/svg">
  <g transform="matrix(1 0 0 1 -36 -2272 )">
    <path d="M 28.6213727678571 22.55859375  C 28.7309337797619 22.4461410984849  28.7857142857143 22.3129734848485  28.7857142857143 22.1590909090909  L 28.7857142857143 8.52272727272727  C 28.4166666666667 8.94886363636363  28.018787202381 9.33948863636363  27.5920758928571 9.69460227272727  C 24.5013020833333 12.1330492424242  22.0448288690476 14.1335227272727  20.22265625 15.6960227272727  C 19.6344866071429 16.2050189393939  19.1558779761905 16.6015625  18.7868303571429 16.8856534090909  C 18.4177827380952 17.1697443181818  17.9189918154762 17.4567945075758  17.2904575892857 17.7468039772727  C 16.6619233630952 18.0368134469697  16.0708705357143 18.1818181818182  15.5172991071429 18.1818181818182  L 15.5 18.1818181818182  L 15.4827008928571 18.1818181818182  C 14.9291294642857 18.1818181818182  14.3380766369048 18.0368134469697  13.7095424107143 17.7468039772727  C 13.0810081845238 17.4567945075758  12.5822172619048 17.1697443181818  12.2131696428571 16.8856534090909  C 11.8441220238095 16.6015625  11.3655133928571 16.2050189393939  10.77734375 15.6960227272727  C 8.95517113095238 14.1335227272727  6.49869791666667 12.1330492424242  3.40792410714286 9.69460227272727  C 2.98121279761905 9.33948863636363  2.58333333333333 8.94886363636363  2.21428571428571 8.52272727272727  L 2.21428571428571 22.1590909090909  C 2.21428571428571 22.3129734848485  2.2690662202381 22.4461410984849  2.37862723214286 22.55859375  C 2.48818824404762 22.6710464015151  2.61793154761905 22.7272727272727  2.76785714285714 22.7272727272727  L 28.2321428571429 22.7272727272727  C 28.382068452381 22.7272727272727  28.5118117559524 22.6710464015151  28.6213727678571 22.55859375  Z M 27.9813058035714 5.83274147727273  C 28.517578125 4.97455018939394  28.7857142857143 4.19625946969697  28.7857142857143 3.49786931818182  L 28.7857142857143 3.30255681818182  L 28.7857142857143 3.06285511363636  C 28.7857142857143 3.06285511363636  28.7828311011905 2.98591382575757  28.7770647321429 2.83203125  C 28.7712983630952 2.67814867424242  28.7539992559524 2.60416666666666  28.7251674107143 2.61008522727273  C 28.6963355654762 2.61600378787879  28.6646205357143 2.56273674242424  28.6300223214286 2.45028409090909  C 28.5954241071429 2.33783143939394  28.5435267857143 2.29344223484848  28.4743303571429 2.31711647727273  C 28.4051339285714 2.34079071969697  28.3244047619048 2.32599431818182  28.2321428571429 2.27272727272727  L 2.76785714285714 2.27272727272727  C 2.61793154761905 2.27272727272727  2.48818824404762 2.32895359848485  2.37862723214286 2.44140625  C 2.2690662202381 2.55385890151515  2.21428571428571 2.68702651515151  2.21428571428571 2.84090909090909  C 2.21428571428571 4.82954545454546  3.06194196428571 6.51041666666666  4.75725446428571 7.88352272727273  C 6.98307291666667 9.68276515151515  9.29538690476191 11.5589488636364  11.6941964285714 13.5120738636364  C 11.7633928571429 13.571259469697  11.9652157738095 13.7458570075758  12.2996651785714 14.0358664772727  C 12.6341145833333 14.3258759469697  12.8993675595238 14.547821969697  13.0954241071429 14.7017045454545  C 13.2914806547619 14.8555871212121  13.548084077381 15.042021780303  13.865234375 15.2610085227273  C 14.182384672619 15.4799952651515  14.4735863095238 15.6427556818182  14.7388392857143 15.7492897727273  C 15.0040922619048 15.8558238636364  15.2520461309524 15.9090909090909  15.4827008928571 15.9090909090909  L 15.5 15.9090909090909  L 15.5172991071429 15.9090909090909  C 15.7479538690476 15.9090909090909  15.9959077380952 15.8558238636364  16.2611607142857 15.7492897727273  C 16.5264136904762 15.6427556818182  16.817615327381 15.4799952651515  17.134765625 15.2610085227273  C 17.451915922619 15.042021780303  17.7085193452381 14.8555871212121  17.9045758928571 14.7017045454545  C 18.1006324404762 14.547821969697  18.3658854166667 14.3258759469697  18.7003348214286 14.0358664772727  C 19.0347842261905 13.7458570075758  19.2366071428571 13.571259469697  19.3058035714286 13.5120738636364  C 21.7046130952381 11.5589488636364  24.0169270833333 9.68276515151515  26.2427455357143 7.88352272727273  C 26.8655133928571 7.37452651515151  27.4450334821429 6.69093276515151  27.9813058035714 5.83274147727273  Z M 30.1869419642857 0.834517045454544  C 30.7289806547619 1.39086174242424  31 2.05965909090909  31 2.84090909090909  L 31 22.1590909090909  C 31 22.9403409090909  30.7289806547619 23.6091382575758  30.1869419642857 24.1654829545455  C 29.6449032738095 24.7218276515151  28.9933035714286 25  28.2321428571429 25  L 2.76785714285714 25  C 2.00669642857143 25  1.35509672619048 24.7218276515151  0.813058035714286 24.1654829545455  C 0.271019345238095 23.6091382575758  0 22.9403409090909  0 22.1590909090909  L 0 2.84090909090909  C 0 2.05965909090909  0.271019345238095 1.39086174242424  0.813058035714286 0.834517045454544  C 1.35509672619048 0.278172348484845  2.00669642857143 0  2.76785714285714 0  L 28.2321428571429 0  C 28.9933035714286 0  29.6449032738095 0.278172348484845  30.1869419642857 0.834517045454544  Z " fill-rule="nonzero" fill="#2699fb" stroke="none" transform="matrix(1 0 0 1 36 2272 )" />
  </g>
</svg>