<?xml version="1.0" encoding="utf-8"?>
<svg version="1.1" xmlns:xlink="http://www.w3.org/1999/xlink" width="31px" height="32px" xmlns="http://www.w3.org/2000/svg">
  <g transform="matrix(1 0 0 1 -88 -2269 )">
    <path d="M 31 3.80952380952381  C 31 1.70666666666667  29.3466666666667 0  27.3095238095238 0  L 3.69047619047619 0  C 1.65333333333333 0  0 1.70666666666667  0 3.80952380952381  L 0 28.1904761904762  C 0 30.2933333333333  1.65333333333333 32  3.69047619047619 32  L 27.3095238095238 32  C 29.3466666666667 32  31 30.2933333333333  31 28.1904761904762  L 31 3.80952380952381  Z M 5.16666666666667 12.1904761904762  L 10 12.1904761904762  L 10 26.6666666666667  L 5.16666666666667 26.6666666666667  L 5.16666666666667 12.1904761904762  Z M 7.38095238095238 9.90476190476191  C 6.05238095238095 9.90476190476191  5.16666666666667 9.04380952380952  5.16666666666667 7.97714285714286  C 5.16666666666667 6.91047619047619  6.05238095238095 6.09523809523809  7.38095238095238 6.09523809523809  C 8.70952380952381 6.09523809523809  9.54357142857143 6.91047619047619  9.59523809523809 7.97714285714286  C 9.59523809523809 9.04380952380953  8.76857142857143 9.90476190476191  7.38095238095238 9.90476190476191  Z M 25.8333333333333 18.4838095238095  L 25.8333333333333 26.6666666666667  L 21.4047619047619 26.6666666666667  C 21.4047619047619 26.6666666666667  21.4047619047619 19.6114285714286  21.4047619047619 19.047619047619  C 21.4047619047619 17.5238095238095  20.6666666666667 16  18.8214285714286 15.9695238095238  L 18.762380952381 15.9695238095238  C 16.9761904761905 15.9695238095238  16.2380952380952 17.5390476190476  16.2380952380952 19.047619047619  C 16.2380952380952 19.7409523809524  16.2380952380952 26.6666666666667  16.2380952380952 26.6666666666667  L 12 26.6666666666667  L 12 12.1904761904762  L 16.2380952380952 12.1904761904762  L 16.2380952380952 14.1409523809524  C 16.2380952380952 14.1409523809524  17.662619047619 12.1904761904762  20.5264285714286 12.1904761904762  C 23.4566666666667 12.1904761904762  25.8333333333333 14.2704761904762  25.8333333333333 18.4838095238095  Z " fill-rule="nonzero" fill="#2699fb" stroke="none" transform="matrix(1 0 0 1 88 2269 )" />
  </g>
</svg>