<?xml version="1.0" encoding="utf-8"?>
<svg version="1.1" xmlns:xlink="http://www.w3.org/1999/xlink" width="32px" height="32px" xmlns="http://www.w3.org/2000/svg">
  <g transform="matrix(1 0 0 1 -193 -1987 )">
    <path d="M 32 3.80952380952381  C 32 1.70666666666667  30.2933333333333 0  28.1904761904762 0  L 3.80952380952381 0  C 1.70666666666667 0  0 1.70666666666667  0 3.80952380952381  L 0 28.1904761904762  C 0 30.2933333333333  1.70666666666667 32  3.80952380952381 32  L 28.1904761904762 32  C 30.2933333333333 32  32 30.2933333333333  32 28.1904761904762  L 32 3.80952380952381  Z M 5.33333333333333 12.1904761904762  L 10 12.1904761904762  L 10 26.6666666666667  L 5.33333333333333 26.6666666666667  L 5.33333333333333 12.1904761904762  Z M 7.61904761904762 9.90476190476191  C 6.24761904761905 9.90476190476191  5.33333333333333 9.04380952380952  5.33333333333333 7.97714285714286  C 5.33333333333333 6.91047619047619  6.24761904761905 6.09523809523809  7.61904761904762 6.09523809523809  C 8.99047619047619 6.09523809523809  9.85142857142857 6.91047619047619  9.90476190476191 7.97714285714286  C 9.90476190476191 9.04380952380953  9.05142857142857 9.90476190476191  7.61904761904762 9.90476190476191  Z M 26.6666666666667 18.4838095238095  L 26.6666666666667 26.6666666666667  L 22.0952380952381 26.6666666666667  C 22.0952380952381 26.6666666666667  22.0952380952381 19.6114285714286  22.0952380952381 19.047619047619  C 22.0952380952381 17.5238095238095  21.3333333333333 16  19.4285714285714 15.9695238095238  L 19.367619047619 15.9695238095238  C 17.5238095238095 15.9695238095238  16.7619047619048 17.5390476190476  16.7619047619048 19.047619047619  C 16.7619047619048 19.7409523809524  16.7619047619048 26.6666666666667  16.7619047619048 26.6666666666667  L 12.1904761904762 26.6666666666667  L 12.1904761904762 12.1904761904762  L 16.7619047619048 12.1904761904762  L 16.7619047619048 14.1409523809524  C 16.7619047619048 14.1409523809524  18.232380952381 12.1904761904762  21.1885714285714 12.1904761904762  C 24.2133333333333 12.1904761904762  26.6666666666667 14.2704761904762  26.6666666666667 18.4838095238095  Z " fill-rule="nonzero" fill="#2699fb" stroke="none" transform="matrix(1 0 0 1 193 1987 )" />
  </g>
</svg>