<?xml version="1.0" encoding="utf-8"?>
<svg version="1.1" xmlns:xlink="http://www.w3.org/1999/xlink" width="30px" height="25px" xmlns="http://www.w3.org/2000/svg">
  <g transform="matrix(1 0 0 1 -37 -2892 )">
    <path d="M 27.6981026785714 22.55859375  C 27.8041294642857 22.4461410984849  27.8571428571429 22.3129734848485  27.8571428571429 22.1590909090909  L 27.8571428571429 8.52272727272727  C 27.5 8.94886363636363  27.1149553571429 9.33948863636363  26.7020089285714 9.69460227272727  C 23.7109375 12.1330492424242  21.3337053571429 14.1335227272727  19.5703125 15.6960227272727  C 19.0011160714286 16.2050189393939  18.5379464285714 16.6015625  18.1808035714286 16.8856534090909  C 17.8236607142857 17.1697443181818  17.3409598214286 17.4567945075758  16.7327008928571 17.7468039772727  C 16.1244419642857 18.0368134469697  15.5524553571429 18.1818181818182  15.0167410714286 18.1818181818182  L 15 18.1818181818182  L 14.9832589285714 18.1818181818182  C 14.4475446428571 18.1818181818182  13.8755580357143 18.0368134469697  13.2672991071429 17.7468039772727  C 12.6590401785714 17.4567945075758  12.1763392857143 17.1697443181818  11.8191964285714 16.8856534090909  C 11.4620535714286 16.6015625  10.9988839285714 16.2050189393939  10.4296875 15.6960227272727  C 8.66629464285714 14.1335227272727  6.2890625 12.1330492424242  3.29799107142857 9.69460227272727  C 2.88504464285714 9.33948863636363  2.5 8.94886363636363  2.14285714285714 8.52272727272727  L 2.14285714285714 22.1590909090909  C 2.14285714285714 22.3129734848485  2.19587053571429 22.4461410984849  2.30189732142857 22.55859375  C 2.40792410714286 22.6710464015151  2.53348214285714 22.7272727272727  2.67857142857143 22.7272727272727  L 27.3214285714286 22.7272727272727  C 27.4665178571429 22.7272727272727  27.5920758928571 22.6710464015151  27.6981026785714 22.55859375  Z M 27.0786830357143 5.83274147727273  C 27.59765625 4.97455018939394  27.8571428571429 4.19625946969697  27.8571428571429 3.49786931818182  L 27.8571428571429 3.30255681818182  L 27.8571428571429 3.06285511363636  C 27.8571428571429 3.06285511363636  27.8543526785714 2.98591382575757  27.8487723214286 2.83203125  C 27.8431919642857 2.67814867424242  27.8264508928571 2.60416666666666  27.7985491071429 2.61008522727273  C 27.7706473214286 2.61600378787879  27.7399553571429 2.56273674242424  27.7064732142857 2.45028409090909  C 27.6729910714286 2.33783143939394  27.6227678571429 2.29344223484848  27.5558035714286 2.31711647727273  C 27.4888392857143 2.34079071969697  27.4107142857143 2.32599431818182  27.3214285714286 2.27272727272727  L 2.67857142857143 2.27272727272727  C 2.53348214285714 2.27272727272727  2.40792410714286 2.32895359848485  2.30189732142857 2.44140625  C 2.19587053571429 2.55385890151515  2.14285714285714 2.68702651515151  2.14285714285714 2.84090909090909  C 2.14285714285714 4.82954545454546  2.96316964285714 6.51041666666666  4.60379464285714 7.88352272727273  C 6.7578125 9.68276515151515  8.99553571428572 11.5589488636364  11.3169642857143 13.5120738636364  C 11.3839285714286 13.571259469697  11.5792410714286 13.7458570075758  11.9029017857143 14.0358664772727  C 12.2265625 14.3258759469697  12.4832589285714 14.547821969697  12.6729910714286 14.7017045454545  C 12.8627232142857 14.8555871212121  13.1110491071429 15.042021780303  13.41796875 15.2610085227273  C 13.7248883928571 15.4799952651515  14.0066964285714 15.6427556818182  14.2633928571429 15.7492897727273  C 14.5200892857143 15.8558238636364  14.7600446428571 15.9090909090909  14.9832589285714 15.9090909090909  L 15 15.9090909090909  L 15.0167410714286 15.9090909090909  C 15.2399553571429 15.9090909090909  15.4799107142857 15.8558238636364  15.7366071428571 15.7492897727273  C 15.9933035714286 15.6427556818182  16.2751116071429 15.4799952651515  16.58203125 15.2610085227273  C 16.8889508928571 15.042021780303  17.1372767857143 14.8555871212121  17.3270089285714 14.7017045454545  C 17.5167410714286 14.547821969697  17.7734375 14.3258759469697  18.0970982142857 14.0358664772727  C 18.4207589285714 13.7458570075758  18.6160714285714 13.571259469697  18.6830357142857 13.5120738636364  C 21.0044642857143 11.5589488636364  23.2421875 9.68276515151515  25.3962053571429 7.88352272727273  C 25.9988839285714 7.37452651515151  26.5597098214286 6.69093276515151  27.0786830357143 5.83274147727273  Z M 29.2131696428571 0.834517045454544  C 29.7377232142857 1.39086174242424  30 2.05965909090909  30 2.84090909090909  L 30 22.1590909090909  C 30 22.9403409090909  29.7377232142857 23.6091382575758  29.2131696428571 24.1654829545455  C 28.6886160714286 24.7218276515151  28.0580357142857 25  27.3214285714286 25  L 2.67857142857143 25  C 1.94196428571429 25  1.31138392857143 24.7218276515151  0.786830357142857 24.1654829545455  C 0.262276785714286 23.6091382575758  0 22.9403409090909  0 22.1590909090909  L 0 2.84090909090909  C 0 2.05965909090909  0.262276785714286 1.39086174242424  0.786830357142857 0.834517045454544  C 1.31138392857143 0.278172348484845  1.94196428571429 0  2.67857142857143 0  L 27.3214285714286 0  C 28.0580357142857 0  28.6886160714286 0.278172348484845  29.2131696428571 0.834517045454544  Z " fill-rule="nonzero" fill="#2699fb" stroke="none" transform="matrix(1 0 0 1 37 2892 )" />
  </g>
</svg>