<?xml version="1.0" encoding="utf-8"?>
<svg version="1.1" xmlns:xlink="http://www.w3.org/1999/xlink" width="30px" height="32px" xmlns="http://www.w3.org/2000/svg">
  <g transform="matrix(1 0 0 1 -88 -2889 )">
    <path d="M 30 3.80952380952381  C 30 1.70666666666667  28.4 0  26.4285714285714 0  L 3.57142857142857 0  C 1.6 0  0 1.70666666666667  0 3.80952380952381  L 0 28.1904761904762  C 0 30.2933333333333  1.6 32  3.57142857142857 32  L 26.4285714285714 32  C 28.4 32  30 30.2933333333333  30 28.1904761904762  L 30 3.80952380952381  Z M 5 12.1904761904762  L 9.28571428571429 12.1904761904762  L 9.28571428571429 26.6666666666667  L 5 26.6666666666667  L 5 12.1904761904762  Z M 7.14285714285714 9.90476190476191  C 5.85714285714286 9.90476190476191  5 9.04380952380952  5 7.97714285714286  C 5 6.91047619047619  5.85714285714286 6.09523809523809  7.14285714285714 6.09523809523809  C 8.42857142857143 6.09523809523809  9.23571428571428 6.91047619047619  9.28571428571429 7.97714285714286  C 9.28571428571429 9.04380952380953  8.48571428571428 9.90476190476191  7.14285714285714 9.90476190476191  Z M 25 18.4838095238095  L 25 26.6666666666667  L 20.7142857142857 26.6666666666667  C 20.7142857142857 26.6666666666667  20.7142857142857 19.6114285714286  20.7142857142857 19.047619047619  C 20.7142857142857 17.5238095238095  20 16  18.2142857142857 15.9695238095238  L 18.1571428571429 15.9695238095238  C 16.4285714285714 15.9695238095238  15.7142857142857 17.5390476190476  15.7142857142857 19.047619047619  C 15.7142857142857 19.7409523809524  15.7142857142857 26.6666666666667  15.7142857142857 26.6666666666667  L 12 26.6666666666667  L 12 12.1904761904762  L 15.7142857142857 12.1904761904762  L 15.7142857142857 14.1409523809524  C 15.7142857142857 14.1409523809524  17.0928571428571 12.1904761904762  19.8642857142857 12.1904761904762  C 22.7 12.1904761904762  25 14.2704761904762  25 18.4838095238095  Z " fill-rule="nonzero" fill="#2699fb" stroke="none" transform="matrix(1 0 0 1 88 2889 )" />
  </g>
</svg>