<?xml version="1.0" encoding="utf-8"?>
<svg version="1.1" xmlns:xlink="http://www.w3.org/1999/xlink" width="14px" height="15px" xmlns="http://www.w3.org/2000/svg">
  <g transform="matrix(1 0 0 1 -305 -276 )">
    <path d="M 13.7215909090909 5.75284090909091  C 13.907196969697 5.95170454545454  14 6.19318181818182  14 6.47727272727273  L 14 8.52272727272727  C 14 8.80681818181818  13.907196969697 9.04829545454545  13.7215909090909 9.24715909090909  C 13.5359848484848 9.44602272727273  13.3106060606061 9.54545454545455  13.0454545454545 9.54545454545455  L 8.90909090909091 9.54545454545455  L 8.90909090909091 13.9772727272727  C 8.90909090909091 14.2613636363636  8.81628787878788 14.5028409090909  8.63068181818182 14.7017045454545  C 8.44507575757576 14.9005681818182  8.21969696969697 15  7.95454545454546 15  L 6.04545454545455 15  C 5.78030303030303 15  5.55492424242424 14.9005681818182  5.36931818181818 14.7017045454545  C 5.18371212121212 14.5028409090909  5.09090909090909 14.2613636363636  5.09090909090909 13.9772727272727  L 5.09090909090909 9.54545454545455  L 0.954545454545454 9.54545454545455  C 0.689393939393939 9.54545454545455  0.464015151515152 9.44602272727273  0.278409090909091 9.24715909090909  C 0.0928030303030303 9.04829545454545  0 8.80681818181818  0 8.52272727272727  L 0 6.47727272727273  C 0 6.19318181818182  0.0928030303030303 5.95170454545454  0.278409090909091 5.75284090909091  C 0.464015151515152 5.55397727272727  0.689393939393939 5.45454545454546  0.954545454545454 5.45454545454546  L 5.09090909090909 5.45454545454546  L 5.09090909090909 1.02272727272727  C 5.09090909090909 0.738636363636363  5.18371212121212 0.49715909090909  5.36931818181818 0.298295454545455  C 5.55492424242424 0.0994318181818177  5.78030303030303 0  6.04545454545455 0  L 7.95454545454546 0  C 8.21969696969697 0  8.44507575757576 0.0994318181818177  8.63068181818182 0.298295454545455  C 8.81628787878788 0.49715909090909  8.90909090909091 0.738636363636363  8.90909090909091 1.02272727272727  L 8.90909090909091 5.45454545454546  L 13.0454545454545 5.45454545454546  C 13.3106060606061 5.45454545454546  13.5359848484848 5.55397727272727  13.7215909090909 5.75284090909091  Z " fill-rule="nonzero" fill="#169bd5" stroke="none" transform="matrix(1 0 0 1 305 276 )" />
  </g>
</svg>