<?xml version="1.0" encoding="utf-8"?>
<svg version="1.1" xmlns:xlink="http://www.w3.org/1999/xlink" width="13px" height="13px" viewBox="10 87  13 13" xmlns="http://www.w3.org/2000/svg">
  <path d="M 10.5 89  A 1.5 1.5 0 0 1 12 87.5 L 21 87.5  A 1.5 1.5 0 0 1 22.5 89 L 22.5 98  A 1.5 1.5 0 0 1 21 99.5 L 12 99.5  A 1.5 1.5 0 0 1 10.5 98 L 10.5 89  Z " fill-rule="nonzero" fill="#ffffff" stroke="none" />
  <path d="M 10.5 89  A 1.5 1.5 0 0 1 12 87.5 L 21 87.5  A 1.5 1.5 0 0 1 22.5 89 L 22.5 98  A 1.5 1.5 0 0 1 21 99.5 L 12 99.5  A 1.5 1.5 0 0 1 10.5 98 L 10.5 89  Z " stroke-width="1" stroke="#2699fb" fill="none" />
  <path d="M 12.7857142857143 93.5  L 15.5714285714286 96.2857142857143  " stroke-width="2.78571428571429" stroke="#2699fb" fill="none" />
  <path d="M 15.5714285714286 96.2857142857143  L 20.2142857142857 89.7857142857143  " stroke-width="2.78571428571429" stroke="#2699fb" fill="none" />
</svg>