<?xml version="1.0" encoding="utf-8"?>
<svg version="1.1" xmlns:xlink="http://www.w3.org/1999/xlink" width="16px" height="16px" viewBox="24 12.5  16 16" xmlns="http://www.w3.org/2000/svg">
  <path d="M 24.5 17.5  A 4.5 4.5 0 0 1 29 13 L 35 13  A 4.5 4.5 0 0 1 39.5 17.5 L 39.5 23.5  A 4.5 4.5 0 0 1 35 28 L 29 28  A 4.5 4.5 0 0 1 24.5 23.5 L 24.5 17.5  Z " fill-rule="nonzero" fill="#ffffff" stroke="none" />
  <path d="M 24.5 17.5  A 4.5 4.5 0 0 1 29 13 L 35 13  A 4.5 4.5 0 0 1 39.5 17.5 L 39.5 23.5  A 4.5 4.5 0 0 1 35 28 L 29 28  A 4.5 4.5 0 0 1 24.5 23.5 L 24.5 17.5  Z " stroke-width="1" stroke="#169bd5" fill="none" />
</svg>