<?xml version="1.0" encoding="utf-8"?>
<svg version="1.1" xmlns:xlink="http://www.w3.org/1999/xlink" width="55px" height="65px" xmlns="http://www.w3.org/2000/svg">
  <g transform="matrix(1 0 0 1 -194 -2861 )">
    <path d="M 54.634765625 46.9938151041667  C 54.8782552083333 49.1238064236111  55 51.3878038194444  55 53.7858072916667  C 55 56.8608940972222  54.1048177083333 59.4986979166667  52.314453125 61.69921875  C 50.5240885416667 63.8997395833333  48.3684895833333 65  45.84765625 65  L 9.15234375 65  C 6.63151041666667 65  4.47591145833333 63.8997395833333  2.685546875 61.69921875  C 0.895182291666667 59.4986979166667  0 56.8608940972222  0 53.7858072916667  C 0 51.3878038194444  0.121744791666667 49.1238064236111  0.365234375 46.9938151041667  C 0.608723958333334 44.8638237847222  1.05989583333333 42.7197265625  1.71875 40.5615234375  C 2.37760416666667 38.4033203125  3.21549479166667 36.5554470486111  4.232421875 35.0179036458333  C 5.24934895833333 33.4803602430556  6.595703125 32.2249348958333  8.271484375 31.2516276041667  C 9.947265625 30.2783203125  11.8736979166667 29.7916666666667  14.05078125 29.7916666666667  C 17.8033854166667 33.4027777777778  22.2864583333333 35.2083333333333  27.5 35.2083333333333  C 32.7135416666667 35.2083333333333  37.1966145833333 33.4027777777778  40.94921875 29.7916666666667  C 43.1263020833333 29.7916666666667  45.052734375 30.2783203125  46.728515625 31.2516276041667  C 48.404296875 32.2249348958333  49.7506510416667 33.4803602430556  50.767578125 35.0179036458333  C 51.7845052083333 36.5554470486111  52.6223958333333 38.4033203125  53.28125 40.5615234375  C 53.9401041666667 42.7197265625  54.3912760416667 44.8638237847222  54.634765625 46.9938151041667  Z M 39.166015625 4.7607421875  C 42.388671875 7.9345703125  44 11.7643229166667  44 16.25  C 44 20.7356770833333  42.388671875 24.5654296875  39.166015625 27.7392578125  C 35.943359375 30.9130859375  32.0546875 32.5  27.5 32.5  C 22.9453125 32.5  19.056640625 30.9130859375  15.833984375 27.7392578125  C 12.611328125 24.5654296875  11 20.7356770833333  11 16.25  C 11 11.7643229166667  12.611328125 7.9345703125  15.833984375 4.7607421875  C 19.056640625 1.5869140625  22.9453125 0  27.5 0  C 32.0546875 0  35.943359375 1.5869140625  39.166015625 4.7607421875  Z " fill-rule="nonzero" fill="#2699fb" stroke="none" transform="matrix(1 0 0 1 194 2861 )" />
  </g>
</svg>