<?xml version="1.0" encoding="utf-8"?>
<svg version="1.1" xmlns:xlink="http://www.w3.org/1999/xlink" width="50px" height="50px" xmlns="http://www.w3.org/2000/svg">
  <g transform="matrix(1 0 0 1 -1129 -108 )">
    <path d="M 50 5.95238095238095  C 50 2.66666666666667  47.3333333333333 0  44.047619047619 0  L 5.95238095238095 0  C 2.66666666666667 0  0 2.66666666666667  0 5.95238095238095  L 0 44.047619047619  C 0 47.3333333333333  2.66666666666667 50  5.95238095238095 50  L 44.047619047619 50  C 47.3333333333333 50  50 47.3333333333333  50 44.047619047619  L 50 5.95238095238095  Z M 9 19.047619047619  L 16 19.047619047619  L 16 41.6666666666667  L 9 41.6666666666667  L 9 19.047619047619  Z M 11.9047619047619 15.4761904761905  C 9.76190476190476 15.4761904761905  8.33333333333333 14.1309523809524  8.33333333333333 12.4642857142857  C 8.33333333333333 10.797619047619  9.76190476190476 9.52380952380952  11.9047619047619 9.52380952380952  C 14.047619047619 9.52380952380952  15.3928571428571 10.797619047619  15.4761904761905 12.4642857142857  C 15.4761904761905 14.1309523809524  14.1428571428571 15.4761904761905  11.9047619047619 15.4761904761905  Z M 41 28.8809523809524  L 41 41.6666666666667  L 34.5238095238095 41.6666666666667  C 34.5238095238095 41.6666666666667  34.5238095238095 30.6428571428571  34.5238095238095 29.7619047619048  C 34.5238095238095 27.3809523809524  33.3333333333333 25  30.3571428571429 24.952380952381  L 30.2619047619048 24.952380952381  C 27.3809523809524 24.952380952381  26.1904761904762 27.4047619047619  26.1904761904762 29.7619047619048  C 26.1904761904762 30.8452380952381  26.1904761904762 41.6666666666667  26.1904761904762 41.6666666666667  L 19 41.6666666666667  L 19 19.047619047619  L 26.1904761904762 19.047619047619  L 26.1904761904762 22.0952380952381  C 26.1904761904762 22.0952380952381  28.4880952380952 19.047619047619  33.1071428571429 19.047619047619  C 37.8333333333333 19.047619047619  41.6666666666667 22.2976190476191  41 28.8809523809524  Z " fill-rule="nonzero" fill="#ffffff" stroke="none" transform="matrix(1 0 0 1 1129 108 )" />
  </g>
</svg>