<?xml version="1.0" encoding="utf-8"?>
<svg version="1.1" xmlns:xlink="http://www.w3.org/1999/xlink" width="24px" height="24px" xmlns="http://www.w3.org/2000/svg">
  <g transform="matrix(1 0 0 1 -278 -309 )">
    <path d="M 2.4 2.4  L 15.6 2.4  L 15.6 11  L 3.804 11  L 3.096 11.508  L 2.4 12.204  L 2.4 2.4  Z M 18 1.2  C 18 0.54  17.46 0  16.8 0  L 1.2 0  C 0.54 0  0 0.54  0 1.2  L 0 18  L 4.8 13  L 16.8 13  C 17.46 13.2  18 12.66  18 12  L 18 1.2  Z M 24 6  C 24 5.34  23.46 4.8  22.8 4.8  L 20 4.8  L 20 15.6  L 4.8 15.6  L 4.8 18  C 4.8 18.66  5.34 19.2  6 19  L 19.2 19  L 24 24  L 24 6  Z " fill-rule="nonzero" fill="#ffffff" stroke="none" transform="matrix(1 0 0 1 278 309 )" />
  </g>
</svg>