<?xml version="1.0" encoding="utf-8"?>
<svg version="1.1" xmlns:xlink="http://www.w3.org/1999/xlink" width="73px" height="73px" xmlns="http://www.w3.org/2000/svg">
  <g transform="matrix(1 0 0 1 -253 -210 )">
    <path d="M 73 36.5  C 73 16.342875  56.657125 0  36.5 0  C 16.342875 0  0 16.342875  0 36.5  C 0 43.3474243333333  1.9233720625 49.7314568333333  5.2041015625 55.2074392916667  L 0.3267416125 73  L 18.4995115666667 68.2295747083333  C 23.8142850833333 71.25123025  29.9497404166667 73  36.5 73  C 56.657125 73  73 56.657125  73 36.5  Z M 21.5887036666667 20.6025390625  C 22.4221203333333 19.6961223958333  23.3982580833333 19.473795725  24.0065914166667 19.473795725  C 24.5997164166667 19.473795725  25.2091417083333 19.4701834416667  25.7353530833333 19.4975584416667  C 26.38626975 19.5127670791667  27.0947377916667 19.5604354708333  27.7730294583333 21.0599771375  C 28.579071125 22.8423935  30.3341614583333 27.31388075  30.5592447916667 27.7670890833333  C 30.784328125 28.2202974166667  30.9438270416667 28.7542042083333  30.6305323333333 29.34733225  C 30.332449 29.9556625416667  30.1774213333333 30.3238471666667  29.7394213333333 30.8622221666667  C 29.286213 31.3853888333333  28.78961225 32.035164875  28.37898725 32.4305815416667  C 27.9257789166667 32.883789875  27.457791125 33.3807221666667  27.9809577916667 34.2840971666667  C 28.5041244583333 35.1874721666667  30.3210457916667 38.1489635416667  33.0068344166667 40.5397135416667  C 36.4591260833333 43.6239635416667  39.3719051666667 44.57177425  40.2783218333333 45.0249825833333  C 41.1847354583333 45.4781909166667  41.70966325 45.4075695  42.2328299166667 44.7992361666667  C 42.7712049166667 44.2061111666667  44.4938802083333 42.1709015833333  45.1022135416667 41.2644849166667  C 45.6953385416667 40.35806825  46.3008218333333 40.5149057083333  47.1220718333333 40.8129890416667  C 47.9554885 41.111072375  52.3999809583333 43.3004549166667  53.306397625 43.75366325  C 54.2128142916667 44.2068715833333  54.80703125 44.4311945  55.03515625 44.7992361666667  C 55.2693645833333 45.1794445  55.2696018333333 46.98942475  54.5183101666667 49.1003414166667  C 53.7670185 51.2082164166667  50.07776275 53.2466075833333  48.4230960833333 53.3895659166667  C 46.7532210833333 53.5446909166667  45.19479275 54.1401458333333  37.5693344166667 51.1380208333333  C 28.3713374583333 47.5153958333333  22.5706388333333 38.0944994583333  22.1174305 37.486166125  C 21.6642221666667 36.893041125  18.4341634875 32.58813075  18.4341634875 28.1472974166667  C 18.4341634875 23.69125575  20.7704962458333 21.5089542083333  21.5887036666667 20.6025390625  Z " fill-rule="nonzero" fill="#2699fb" stroke="none" transform="matrix(1 0 0 1 253 210 )" />
  </g>
</svg>